<svg id="Layer_1" data-name="Layer 1" xmlns="http://www.w3.org/2000/svg" viewBox="0 0 200 200"><defs><style>.cls-1{fill:#231f20;}</style></defs><path class="cls-1" d="M23.76,97.57c2.46-2.08,3.72-2.74,5.19-2.74s1.74,1,.82,2.87a15.52,15.52,0,0,1-.85,1.49l-6.69,10.5h1.63l-.45.71-5.14,0,.48-.7h1.63l6.8-10.49a15.48,15.48,0,0,0,.94-1.61c.59-1.14.43-1.81-.39-1.81a5.35,5.35,0,0,0-3.08,1.64,30.06,30.06,0,0,0-4.86,6l-4.29,6.22h1.64l-.49.71-5.14,0,.51-.7h1.63L30.51,85H29.17l.48-.7h2.88Z"/><path class="cls-1" d="M37.6,98.08a9.31,9.31,0,0,0,.51-1c.41-.94.17-1.57-.58-1.57a4,4,0,0,0-2.75,1.53,1.73,1.73,0,0,0-.13.47,2.46,2.46,0,0,1-.24.9c-.46,1-1.4,1.92-1.95,1.92-.39,0-.41-.47,0-1.26,1-2.16,3.83-4.23,5.72-4.23,1.53,0,2,1.15,1.24,3a14.42,14.42,0,0,1-.77,1.58l-5,8.83a9.55,9.55,0,0,0-.45.86c-.21.47-.16.79.16.79s.53-.15,1.06-.58l-.06.47c-1.34.94-1.67,1.09-2.31,1.09-.89,0-1-.83-.35-2.32l.05-.12.36-.75c-2,2.2-3.55,3.17-5,3.17s-1.63-1-.75-2.84a11.78,11.78,0,0,1,3.89-4.38,8.68,8.68,0,0,1,5.09-1.6ZM35,102.59a6,6,0,0,0-4.18,1.75,9.76,9.76,0,0,0-2.22,3c-.54,1.14-.41,1.93.32,1.93s2.16-.89,3.33-2.3a23.85,23.85,0,0,0,2-3.07Z"/><path class="cls-1" d="M42.9,96H41.77l.39-.71H47l-.36.71H44.85l-3.19,11.17L49.84,96H48.1l.35-.71h3.21l-.32.7h-1l-11,14.89h-.76Z"/><path class="cls-1" d="M49.86,104.57a28.09,28.09,0,0,0-1.09,2.6c-.64,1.89-.27,3,1,3,1.71,0,3.8-1.79,5.42-4.71h.47c-1.82,3.39-4.25,5.51-6.24,5.5-2.21,0-2.9-2.73-1.64-6.32a21.15,21.15,0,0,1,3.47-6c1.93-2.39,3.7-3.69,5.08-3.69,1.8,0,2.4,2.18,1.47,5.37-.12.43-.23.71-.45,1.3l-6.09,0Zm6.45-5.42a11,11,0,0,0,.52-1.42c.42-1.38.09-2-.94-2-1.3,0-2.52,1.26-3.68,3.81l-.61,1.34h4Z"/><path class="cls-1" d="M73.56,96H72l.23-.71h3.08l-.21.71h-1L62.58,117.31c-1.77,3-2.93,4.09-4.11,4.09-.69,0-1-.68-.74-1.67.32-1.22,1.25-2.28,2-2.28.46,0,.61.24.7,1,0,.24.11.32.26.32.39,0,.61-.27,1.54-1.85l3.55-6.11L67,96H66l.25-.71H70.7l-.24.71H69l-1,10.87Z"/><path class="cls-1" d="M82.89,101.29c-.55,5.07-4,9.77-7.08,9.75-2.21,0-3.35-2.62-2.7-6.34.88-5.06,4.29-9.76,7.07-9.76C82.18,95,83.3,97.56,82.89,101.29ZM75.41,104a30.68,30.68,0,0,0-1,3.83c-.23,1.46.41,2.46,1.61,2.46a3.26,3.26,0,0,0,2.72-1.93A25.7,25.7,0,0,0,80.19,104l.47-1.94a28,28,0,0,0,.78-3.76c.19-1.5-.41-2.53-1.49-2.54a3.13,3.13,0,0,0-2.55,1.94A31.9,31.9,0,0,0,76,102Z"/><path class="cls-1" d="M92.25,110h1.64l-.12.71-3.53,0,.44-2.37c-1.23,2-2.25,2.76-3.75,2.76-1.77,0-2.62-1.17-2.42-3.31a16.63,16.63,0,0,1,.41-2.29l2-9.43H85.43l.15-.71h3.15l-2.11,10.7a16.08,16.08,0,0,0-.36,2.14c-.11,1.35.25,2,1.15,2a3,3,0,0,0,2.32-1.3c.81-1.07,1.35-2.81,1.93-6.11l1.11-6.7H91.29l.12-.72h3.14Z"/><path class="cls-1" d="M104.81,110.07H107l-.06.71-6.17,0,.09-.71h2.12l1.22-14h-1.94l.06-.71h1.91l.26-3.46c.16-4.57,1.46-7.87,3.22-8.07h.06c.82,0,1.44.83,1.56,2.15s-.24,2.27-.76,2.27c-.32,0-.56-.52-.62-1.24a3.33,3.33,0,0,1,.45-2.07c-.19-.36-.36-.48-.7-.48s-.71.32-.94.84a9.15,9.15,0,0,0-.46,3.3l-.37,6.76H108l0,.72h-2.1Z"/><path class="cls-1" d="M117.51,101.4c.69,5.1-1.56,9.83-4.67,9.82-2.21,0-4-2.65-4.27-6.39-.36-5.09,1.89-9.82,4.67-9.82C115.24,95,117,97.65,117.51,101.4Zm-6.81,2.68a28.09,28.09,0,0,0,0,3.86,2.24,2.24,0,0,0,4.45.54,21.9,21.9,0,0,0,.35-4.38v-1.95a27.16,27.16,0,0,0-.15-3.79c-.18-1.51-1-2.55-2.12-2.55s-1.72.71-2.07,1.94a27.29,27.29,0,0,0-.37,4.38Z"/><path class="cls-1" d="M122.53,99.42c.52-3.27,1-4.39,2.11-4.38.64,0,1.13.6,1.34,1.64.27,1.31,0,2.47-.65,2.47-.38,0-.7-.48-.83-1.2,0-.2-.07-.44-.11-.8,0-.12,0-.24,0-.28,0-.24-.19-.4-.32-.4-.42,0-.81,1-1.07,2.75a30,30,0,0,0-.13,6.3l.17,4.63h1.64l0,.71-5.14,0v-.72h1.63l-.5-14h-1.48l0-.72h3.17Z"/><path class="cls-1" d="M134.17,110.2c2,0,2.73.65,3.27,2.77,1.25,4.88-.69,8.9-4.24,8.88a4.87,4.87,0,0,1-4.87-4,3.7,3.7,0,0,1,1.59-4.22,3.27,3.27,0,0,1-2-2.68,6.31,6.31,0,0,1,.34-3.75,4.81,4.81,0,0,1,1-1.51,4,4,0,0,0,.38-.56,6.57,6.57,0,0,1-1.62-3.32c-.77-3.71.42-6.78,2.66-6.78,1,0,1.7.48,2.69,1.76.51-1.15.81-1.51,1.32-1.51s.92.48,1.12,1.2c.26,1,.1,1.84-.35,1.84s-.61-.36-.79-1-.26-.8-.46-.8-.33.24-.54.71a8.79,8.79,0,0,1,.87,2.16c1,3.76-.21,6.88-2.58,6.87a3.32,3.32,0,0,1-1.9-.65,4.17,4.17,0,0,0-1.41,3.39c.16.8.7,1.2,1.73,1.2Zm-3.87,3.49a5.28,5.28,0,0,0-.59,3.91c.43,2.15,1.73,3.44,3.53,3.45,2,0,3.43-1.38,3.87-3.69a6.17,6.17,0,0,0,0-2.4,1.85,1.85,0,0,0-.55-1c-.33-.24-.38-.24-1.88-.25H130.3Zm-.5-11.89a17.86,17.86,0,0,0,.26,1.87c.26,1.2.81,1.76,1.75,1.77,1.3,0,1.57-.76,1.21-3.63l-.32-2.6c-.13-1-.19-1.44-.27-1.76-.27-1.08-.82-1.6-1.7-1.6-1.14,0-1.44.91-1.16,3.55Z"/><path class="cls-1" d="M146.11,101.49c1.73,5.13.44,9.88-2.68,9.87-2.21,0-4.52-2.66-5.55-6.42-1.39-5.12-.1-9.87,2.68-9.87C142.55,95.08,144.85,97.72,146.11,101.49Zm-6.26,2.7a32.88,32.88,0,0,0,.75,3.88,3.11,3.11,0,0,0,2.71,2.49c1,0,1.73-.71,1.85-2a22.19,22.19,0,0,0-.54-4.4l-.39-2a33.88,33.88,0,0,0-.91-3.8c-.5-1.52-1.56-2.57-2.64-2.57s-1.58.72-1.68,2a28.37,28.37,0,0,0,.52,4.4Z"/><path class="cls-1" d="M152.12,107.6a8.73,8.73,0,0,0,.32,1.16c.33.92.89,1.45,1.52,1.45.78,0,1-.64.84-2.16h.48c.33,2.33-.24,3.36-1.76,3.36-1.18,0-2.34-1.09-2.93-2.78a17.24,17.24,0,0,1-.51-1.92l-2.45-10.5h-1.44l-.14-.6c.92-.8,1.49-3.8,1.2-6.49h.21l1.67,6.38h2.35l.19.72h-2.36Z"/><path class="cls-1" d="M159.42,107.63a8.74,8.74,0,0,0,.38,1.16c.38.93,1,1.45,1.59,1.45.78,0,1-.64.73-2.16h.48c.44,2.33-.07,3.37-1.59,3.36-1.18,0-2.4-1.09-3.07-2.78a17.76,17.76,0,0,1-.6-1.92l-3-10.52h-1.44l-.17-.6c.88-.8,1.3-3.81.88-6.5h.21l2,6.38h2.36l.23.72h-2.37Z"/><path class="cls-1" d="M164.63,105a27,27,0,0,0,1,2.65c.87,1.93,2.09,3,3.39,3,1.71,0,2.35-1.84,1.63-4.81h.47c.89,3.46.16,5.62-1.83,5.61-2.21,0-5.07-2.79-6.68-6.45a15.26,15.26,0,0,1-1.36-6.14c0-2.45.74-3.77,2.12-3.77,1.8,0,4.13,2.22,5.76,5.48.22.44.34.72.59,1.33l-6.1,0Zm2.09-5.53a12.07,12.07,0,0,0-.61-1.45c-.69-1.41-1.55-2.09-2.59-2.1-1.3,0-1.5,1.29-.61,3.9l.46,1.36,4,0Z"/><path class="cls-1" d="M173,97.84c.09-1.93.57-2.7,1.76-2.7,1.35,0,3.09,1.38,4.2,3.32.3.52.68,1.25,1,2l4.43,10H186l.32.73-5.14,0-.3-.72h1.63l-4.81-11c-.21-.45-.53-1.09-.76-1.49-.61-1.09-1.48-1.82-2.17-1.82s-1.13.6-1.2,1.53c0,1.2.37,2.61,1.91,6.36l2.6,6.44h1.63l.29.73-5.14,0-.27-.73h1.63l-5.62-14.13h-1.49l-.28-.73H172Z"/><path class="cls-1" d="M190.51,108.68c.89,1.46.87,2.78,0,2.78-.63,0-1.56-.77-2.18-1.82-.86-1.45-.85-2.78,0-2.78C188.94,106.86,189.86,107.63,190.51,108.68Zm-4.17-5.29c-2.78-5-3.66-7.79-3.33-10.2l.07-1.21a7.36,7.36,0,0,0-1.27-4.33c-1.14-1.77-2.7-3-3.87-3s-1.6,1.45-.84,2.7a1.86,1.86,0,0,0,.62.6,4.33,4.33,0,0,1,1.15,1.26c.77,1.25,1,2.3.43,2.3s-1.05-.65-1.61-1.58c-1.9-3.15-2-6.09-.16-6.09,1.53,0,3.78,2,5.83,5.13,1.79,2.75,2.68,5.49,2.39,7.47l-.3,1.65c-.29,1.93-.14,2.54,1.14,5.16Z"/></svg>